PathFileType	4	(X/Y/Z)	\\147.46.242.158\로컬 디스크 (e)\MOCAP Data\Iguana Capture\iguana\Project 2\Capture day 6 after broken\Session 2\Take05 good walk.trc
DataRate	CameraRate	NumFrames	NumMarkers	Units	OrigDataRate	OrigDataStartFrame	OrigNumFrames
120.0	120.0	12	23	mm	120.0	234	5093
Frame#	Time	ana:head1			ana:head2			ana:bone1			ana:bone2			ana:bone3			ana:tail1			ana:tail2			ana:tail3			ana:tail4			ana:Rforefoot1			ana:Rforefoot2			ana:Rforefoot3			ana:Lforefoot1			ana:Lforefoot2			ana:Lforefoot3			ana:RhindLeg1			ana:RhindLeg2			ana:RhindLeg3			ana:RhindLeg4			ana:LhindLeg1			ana:LhindLeg2			ana:LhindLeg3			ana:LhindLeg4			
		X1	Y1	Z1	X2	Y2	Z2	X3	Y3	Z3	X4	Y4	Z4	X5	Y5	Z5	X6	Y6	Z6	X7	Y7	Z7	X8	Y8	Z8	X9	Y9	Z9	X10	Y10	Z10	X11	Y11	Z11	X12	Y12	Z12	X13	Y13	Z13	X14	Y14	Z14	X15	Y15	Z15	X16	Y16	Z16	X17	Y17	Z17	X18	Y18	Z18	X19	Y19	Z19	X20	Y20	Z20	X21	Y21	Z21	X22	Y22	Z22	X23	Y23	Z23	

4233	35.267	-453.07568	-139.04968	52.01065	-450.26727	-128.54659	52.57068	-447.78754	-107.60442	46.69427	-444.88898	-80.50630	44.96719	-441.67633	-43.87750	37.80547	-439.34378	-11.82667	29.72968	-436.20322	21.06550	20.98693	-425.97894	64.38612	12.16446	-417.59250	96.99229	10.22520	-459.33084	-107.53265	34.28328	-466.89349	-93.84074	34.78308	-470.41867	-86.94999	16.91215	-435.74091	-114.09795	30.35401	-424.14899	-111.30735	21.75653	-429.80341	-119.32893	10.17908	-451.88327	-42.85975	29.65299	-466.61798	-44.63581	23.76229	-462.23141	-32.96671	9.16075	-467.73792	-44.31958	8.00768	-431.44028	-42.40629	32.27710	-416.51703	-35.43172	29.00027	-407.05035	-18.23041	25.94776	-398.92273	-13.83902	14.59436	
4234	35.275	-453.01337	-139.90689	52.09864	-450.19980	-129.42302	52.64740	-447.90918	-108.45846	46.73638	-445.31360	-81.33144	44.96671	-442.01813	-44.70060	37.82521	-439.35736	-12.68427	29.74621	-436.17783	20.20342	21.01390	-426.05231	63.54551	12.17490	-417.78848	96.15334	10.20964	-459.34717	-108.80281	34.44191	-467.54221	-95.58234	35.23594	-472.30396	-89.88357	17.30167	-435.71732	-114.65391	30.45819	-424.19507	-111.54382	21.84877	-429.89172	-119.30372	10.05311	-452.17441	-43.47103	29.61191	-466.86624	-44.72961	23.55863	-462.23849	-32.96463	9.13077	-467.80151	-44.29155	8.02476	-431.76984	-43.36376	32.28808	-416.73618	-36.57000	29.10987	-407.16064	-19.36563	26.06661	-399.09232	-14.67288	14.77449	
4235	35.283	-452.94159	-140.75285	52.19502	-450.12112	-130.28479	52.72434	-448.01865	-109.30539	46.77413	-445.73499	-82.14780	44.95755	-442.35349	-45.51149	37.83369	-439.36102	-13.54247	29.74941	-436.13351	19.33927	21.02943	-426.09811	62.70375	12.18356	-417.98108	95.31413	10.19406	-459.34219	-110.05740	34.57933	-468.18277	-97.35426	35.63519	-474.15207	-93.04385	17.75181	-435.69046	-115.19263	30.55428	-424.24017	-111.77730	21.95307	-429.99564	-119.25671	9.91895	-452.45981	-44.07580	29.56667	-467.09317	-44.81619	23.35808	-462.24408	-32.96296	9.11015	-467.85873	-44.25452	8.05452	-432.09726	-44.30050	32.29720	-416.94980	-37.74200	29.21184	-407.32065	-20.49571	26.17219	-399.31772	-15.52560	14.95708	
4236	35.292	-452.85941	-141.57813	52.29595	-450.03046	-131.12227	52.79972	-448.11084	-110.13618	46.80935	-446.14319	-82.94703	44.94241	-442.67233	-46.30409	37.82745	-439.34622	-14.39290	29.73690	-436.06442	18.48116	21.02994	-426.11484	61.86936	12.18797	-418.16910	94.48490	10.18066	-459.31345	-111.28551	34.69679	-468.80219	-99.13727	35.96980	-475.90207	-96.39098	18.26569	-435.65726	-115.71408	30.63421	-424.28156	-112.00076	22.06847	-430.12213	-119.18111	9.76702	-452.72958	-44.66822	29.51649	-467.29089	-44.89712	23.16638	-462.24741	-32.96316	9.10135	-467.90594	-44.21273	8.09405	-432.41296	-45.21409	32.30103	-417.14755	-38.95214	29.31076	-407.54388	-21.62508	26.26452	-399.59775	-16.40335	15.14543	
4237	35.300	-452.76572	-142.37518	52.39635	-449.92758	-131.92819	52.87138	-448.18137	-110.94326	46.84305	-446.52856	-83.72280	44.92344	-442.96552	-47.07430	37.80395	-439.30536	-15.22874	29.70691	-435.96622	17.63572	21.01228	-426.10379	61.04956	12.18594	-418.35187	93.67454	10.17139	-459.25931	-112.47800	34.79425	-469.38800	-100.91382	36.22847	-477.49393	-99.87741	18.83844	-435.61429	-116.21948	30.69127	-424.31732	-112.20883	22.19164	-430.24667	-119.08881	9.62380	-452.97409	-45.24430	29.46033	-467.45273	-44.97493	22.98883	-462.24713	-32.96625	9.10533	-467.94055	-44.17093	8.13850	-432.70782	-46.10590	32.29508	-417.31979	-40.20684	29.41188	-407.84320	-22.76364	26.34128	-399.92609	-17.32243	15.34211	
4238	35.308	-452.65973	-143.13937	52.49048	-449.81284	-132.69821	52.93681	-448.22668	-111.72132	46.87521	-446.88202	-84.47136	44.90187	-443.22537	-47.82037	37.76174	-439.23270	-16.04545	29.65844	-435.83643	16.80744	20.97409	-426.06876	60.24947	12.17583	-418.52902	92.88984	10.16781	-459.17960	-113.62813	34.87033	-469.92960	-102.66980	36.40095	-478.87302	-103.45103	19.45784	-435.55823	-116.71079	30.72074	-424.34598	-112.39825	22.31696	-430.29858	-119.00340	9.56511	-453.18512	-45.80223	29.39711	-467.57404	-45.05273	22.82977	-462.24203	-32.97251	9.12159	-467.96112	-44.13363	8.18186	-432.97351	-46.98069	32.27446	-417.45889	-41.51429	29.52063	-408.22781	-23.92629	26.39813	-400.29077	-18.30923	15.54888	
4239	35.317	-452.54068	-143.86934	52.57268	-449.68671	-133.43135	52.99344	-448.24445	-112.46772	46.90472	-447.19672	-85.19176	44.87795	-443.44638	-48.54313	37.70051	-439.12457	-16.84106	29.59140	-435.67435	15.99829	20.91417	-426.01559	59.47178	12.15680	-418.70056	92.13490	10.17091	-459.07602	-114.73203	34.92248	-470.41913	-104.39600	36.47939	-479.99469	-107.05875	20.10602	-435.48611	-117.19031	30.72040	-424.36627	-112.56818	22.43714	-430.34537	-118.93240	9.50797	-453.35654	-46.34243	29.32593	-467.65265	-45.13379	22.69217	-462.23071	-32.98146	9.14836	-467.96750	-44.10445	8.21777	-433.20364	-47.84586	32.23462	-417.56027	-42.88380	29.64207	-408.70099	-25.13197	26.42937	-400.67429	-19.39894	15.76671	
4240	35.325	-452.40842	-144.56705	52.63815	-449.55011	-134.12997	53.03898	-448.23392	-113.18270	46.92967	-447.46823	-85.88584	44.85102	-443.62576	-49.24566	37.62108	-438.97952	-17.61630	29.50677	-435.48151	15.20778	20.83276	-425.95163	58.71661	12.12896	-418.86703	91.41087	10.18107	-458.95166	-115.78900	34.94751	-470.85223	-106.08916	36.45968	-480.82739	-110.65002	20.76188	-435.39590	-117.65992	30.69084	-424.37762	-112.72031	22.54410	-430.34738	-118.88076	9.49896	-453.48483	-46.86736	29.24635	-467.68936	-45.22107	22.57754	-462.21207	-32.99200	9.18299	-467.96078	-44.08568	8.24057	-433.39395	-48.71038	32.17222	-417.62296	-44.32504	29.78047	-409.25775	-26.40209	26.42888	-401.05475	-20.63325	15.99605	
4241	35.333	-452.26318	-145.23755	52.68377	-449.40408	-134.79927	53.07176	-448.19565	-113.86922	46.94772	-447.69504	-86.55773	44.81990	-443.76358	-49.93289	37.52540	-438.79846	-18.37426	29.40668	-435.26114	14.43317	20.73176	-425.88452	57.98168	12.09339	-419.02927	90.71590	10.19804	-458.81146	-116.80148	34.94230	-471.22845	-107.75240	36.34243	-481.35538	-114.18012	21.40381	-435.28650	-118.12079	30.63554	-424.37955	-112.85862	22.63015	-430.29849	-118.85762	9.54370	-453.56961	-47.38102	29.15871	-467.68747	-45.31693	22.48586	-462.18518	-33.00274	9.22251	-467.94305	-44.07801	8.24607	-433.54309	-49.58359	32.08582	-417.65033	-45.84699	29.93892	-409.88354	-27.75889	26.39113	-401.40759	-22.05710	16.23717	
4242	35.342	-452.10580	-145.88808	52.70856	-449.24973	-135.44661	53.09110	-448.13156	-114.53246	46.95671	-447.87860	-87.21325	44.78339	-443.86273	-50.61089	37.41648	-438.58438	-19.11988	29.29442	-435.01782	13.67004	20.61469	-425.82150	57.26274	12.05207	-419.18823	90.04551	10.22097	-458.66107	-117.77473	34.90464	-471.55063	-109.39503	36.13340	-481.57898	-117.61288	22.01236	-435.15814	-118.57319	30.56069	-424.37192	-112.98877	22.68907	-430.19861	-118.86871	9.64223	-453.61322	-47.88845	29.06423	-467.65253	-45.42303	22.41591	-462.14954	-33.01244	9.26423	-467.91705	-44.08071	8.23220	-433.65237	-50.47400	31.97635	-417.64987	-47.45698	30.11924	-410.55438	-29.22365	26.31225	-401.70816	-23.71490	16.49054	
4243	35.350	-451.93756	-146.52728	52.71405	-449.08780	-136.08051	53.09755	-448.04471	-115.17918	46.95511	-448.02328	-87.85908	44.74080	-443.92828	-51.28601	37.29831	-438.34213	-19.85924	29.17431	-434.75735	12.91294	20.48662	-425.76849	56.55421	12.00772	-419.34534	89.39310	10.24849	-458.50650	-118.71645	34.83401	-471.82385	-111.03177	35.84339	-481.51422	-120.92242	22.57228	-435.01227	-119.01630	30.47473	-424.35483	-113.11760	22.71722	-430.05423	-118.91542	9.78869	-453.62057	-48.39505	28.96521	-467.59149	-45.54029	22.36561	-462.10495	-33.02048	9.30627	-467.88568	-44.09177	8.19931	-433.72595	-51.38826	31.84741	-417.63312	-49.15968	30.32182	-411.23792	-30.81511	26.19082	-401.93457	-25.64675	16.75716	
4244	35.358	-451.76007	-147.16399	52.70412	-448.91891	-136.70969	53.09303	-447.93896	-115.81701	46.94258	-448.13556	-88.50201	44.69247	-443.96741	-51.96413	37.17569	-438.07776	-20.59873	29.05157	-434.48593	12.15617	20.35385	-425.72946	55.84982	11.96354	-419.50174	88.75076	10.27888	-458.35336	-119.63599	34.73205	-472.05441	-112.68115	35.48740	-481.19012	-124.09409	23.07378	-434.85107	-119.44848	30.38764	-424.32877	-113.25223	22.71413	-429.87775	-118.99421	9.97173	-453.59869	-48.90600	28.86492	-467.51221	-45.66905	22.33244	-462.05148	-33.02723	9.34792	-467.85172	-44.10845	8.15010	-433.77008	-52.33055	31.70512	-417.61496	-50.95642	30.54577	-411.89578	-32.54841	26.02837	-402.07095	-27.88490	17.03877	
